<?xml version="1.0" standalone="no"?>
<!DOCTYPE svg PUBLIC "-//W3C//DTD SVG 20010904//EN"
 "http://www.w3.org/TR/2001/REC-SVG-20010904/DTD/svg10.dtd">
<svg version="1.0" xmlns="http://www.w3.org/2000/svg"
 width="402.000000pt" height="365.000000pt" viewBox="0 0 402.000000 365.000000"
 preserveAspectRatio="xMidYMid meet">

<g transform="translate(0.000000,365.000000) scale(0.100000,-0.100000)"
fill="#000000" stroke="none">
<path d="M2470 3053 c-59 -21 -89 -45 -142 -111 -32 -41 -57 -79 -55 -86 2 -6
18 -19 35 -29 l31 -18 25 39 c51 81 107 102 151 58 26 -27 43 -75 80 -242 l26
-115 -116 -135 c-64 -73 -129 -142 -143 -153 -44 -31 -77 -31 -87 -1 -5 15
-15 20 -45 20 l-38 0 -22 -91 c-15 -65 -18 -95 -11 -102 6 -6 42 -11 79 -11
113 0 161 39 333 268 72 97 74 98 81 70 50 -214 80 -292 124 -321 42 -27 147
-24 201 7 34 19 94 83 155 166 6 8 -4 20 -28 35 l-37 23 -16 -25 c-41 -63 -78
-93 -114 -93 -62 0 -88 54 -137 286 l-23 107 44 57 c72 94 196 221 230 235 29
12 33 11 50 -10 14 -17 27 -22 56 -19 l37 3 22 90 c13 49 21 92 18 94 -3 3
-36 7 -73 9 -115 7 -162 -28 -321 -233 -45 -59 -85 -103 -89 -98 -4 4 -17 52
-29 107 -37 166 -87 227 -186 225 -28 0 -58 -3 -66 -6z"/>
<path d="M1368 2370 c-219 -40 -388 -160 -510 -363 -129 -213 -166 -529 -85
-717 22 -51 93 -128 141 -152 139 -71 333 -63 502 22 73 37 264 187 264 208 0
4 -18 25 -39 46 l-40 39 -58 -50 c-120 -102 -207 -146 -320 -158 -72 -9 -162
8 -198 37 -60 47 -87 168 -71 320 l7 64 157 12 c157 12 266 30 352 59 195 66
301 181 317 346 12 132 -46 234 -154 271 -57 20 -199 28 -265 16z m153 -126
c36 -33 49 -70 49 -142 0 -147 -86 -238 -273 -286 -61 -16 -296 -41 -304 -32
-15 15 79 225 131 296 45 60 118 130 163 157 75 44 190 47 234 7z"/>
</g>
</svg>
